<svg xmlns="http://www.w3.org/2000/svg" style="display:none">
  <symbol id="icon-circle-plus" viewBox="0 0 24 24" fill="none">
    <path d="M21 12C21 7.02944 16.9706 3 12 3C7.02944 3 3 7.02944 3 12C3 16.9706 7.02944 21 12 21C16.9706 21 21 16.9706 21 12ZM11 16V13H8C7.44772 13 7 12.5523 7 12C7 11.4477 7.44772 11 8 11H11V8C11 7.44772 11.4477 7 12 7C12.5523 7 13 7.44772 13 8V11H16C16.5523 11 17 11.4477 17 12C17 12.5523 16.5523 13 16 13H13V16C13 16.5523 12.5523 17 12 17C11.4477 17 11 16.5523 11 16ZM23 12C23 18.0751 18.0751 23 12 23C5.92487 23 1 18.0751 1 12C1 5.92487 5.92487 1 12 1C18.0751 1 23 5.92487 23 12Z" fill="currentColor"/>
  </symbol>
  <symbol id="icon-chevron-right" viewBox="0 0 24 24" fill="none">
    <path d="M8.29297 5.29295C8.68349 4.90243 9.31651 4.90243 9.70703 5.29295L15.707 11.293C16.0976 11.6835 16.0976 12.3165 15.707 12.707L9.70703 18.707C9.31651 19.0975 8.68349 19.0975 8.29297 18.707C7.90245 18.3165 7.90245 17.6835 8.29297 17.293L13.5859 12L8.29297 6.70702C7.90245 6.31649 7.90245 5.68348 8.29297 5.29295Z" fill="currentColor"/>
  </symbol>
  <symbol id="icon-chevron-down" viewBox="0 0 24 24" fill="none">
    <path d="M17.293 8.29295C17.6835 7.90243 18.3165 7.90243 18.707 8.29295C19.0975 8.68348 19.0975 9.31649 18.707 9.70702L12.707 15.707C12.3165 16.0975 11.6835 16.0975 11.293 15.707L5.29295 9.70702C4.90243 9.31649 4.90243 8.68348 5.29295 8.29295C5.68348 7.90243 6.31649 7.90243 6.70702 8.29295L12 13.5859L17.293 8.29295Z" fill="currentColor"/>
  </symbol>
  <symbol id="icon-arrow-left" viewBox="0 0 24 24" fill="none">
    <path d="M11.293 4.29302C11.6835 3.90249 12.3165 3.90249 12.707 4.29302C13.0976 4.68354 13.0976 5.31655 12.707 5.70708L7.41406 11H19C19.5523 11 20 11.4478 20 12C20 12.5523 19.5523 13 19 13H7.41406L12.707 18.293C13.0976 18.6835 13.0976 19.3166 12.707 19.7071C12.3165 20.0976 11.6835 20.0976 11.293 19.7071L4.29297 12.7071C3.90245 12.3166 3.90245 11.6835 4.29297 11.293L11.293 4.29302Z" fill="currentColor"/>
  </symbol>
  <symbol id="icon-circle-check" viewBox="0 0 24 24" fill="none">
    <path d="M21 12C21 7.02944 16.9706 3 12 3C7.02944 3 3 7.02944 3 12C3 16.9706 7.02944 21 12 21C16.9706 21 21 16.9706 21 12ZM14.293 9.29297C14.6835 8.90244 15.3165 8.90244 15.707 9.29297C16.0976 9.68349 16.0976 10.3165 15.707 10.707L11.707 14.707C11.3165 15.0976 10.6835 15.0976 10.293 14.707L8.29297 12.707C7.90244 12.3165 7.90244 11.6835 8.29297 11.293C8.68349 10.9024 9.31651 10.9024 9.70703 11.293L11 12.5859L14.293 9.29297ZM23 12C23 18.0751 18.0751 23 12 23C5.92487 23 1 18.0751 1 12C1 5.92487 5.92487 1 12 1C18.0751 1 23 5.92487 23 12Z" fill="currentColor"/>
  </symbol>
  <symbol id="icon-x" viewBox="0 0 24 24" fill="none">
    <path d="M17.293 5.29302C17.6835 4.90249 18.3165 4.90249 18.707 5.29302C19.0976 5.68354 19.0976 6.31655 18.707 6.70708L13.4141 12L18.707 17.293C19.0976 17.6835 19.0976 18.3166 18.707 18.7071C18.3165 19.0976 17.6835 19.0976 17.293 18.7071L12 13.4141L6.70703 18.7071C6.31651 19.0976 5.68349 19.0976 5.29297 18.7071C4.90245 18.3166 4.90245 17.6835 5.29297 17.293L10.5859 12L5.29297 6.70708C4.90245 6.31655 4.90245 5.68354 5.29297 5.29302C5.68349 4.90249 6.31651 4.90249 6.70703 5.29302L12 10.586L17.293 5.29302Z" fill="currentColor"/>
  </symbol>
  <symbol id="icon-triangle-alert" viewBox="0 0 24 24" fill="none">
    <path d="M11.9898 1.98608C12.5205 1.98608 13.042 2.12711 13.5006 2.39429C13.9579 2.66084 14.3367 3.04349 14.5982 3.50366L22.5963 17.4998L22.689 17.6736C22.8918 18.085 22.9974 18.5384 22.9976 18.9988C22.9978 19.5251 22.8601 20.0428 22.5972 20.4988C22.3343 20.9547 21.9552 21.3329 21.4996 21.5964C21.044 21.8599 20.5269 21.9992 20.0006 21.9998H3.99958V21.9988C3.47394 22.0019 2.95667 21.868 2.49958 21.6082C2.03976 21.3468 1.65671 20.9683 1.39021 20.5115C1.12384 20.0547 0.983177 19.5354 0.982006 19.0066C0.980857 18.4791 1.11925 17.9608 1.3824 17.5037L9.38142 3.50366C9.64301 3.04334 10.0226 2.66087 10.4801 2.39429C10.9385 2.12722 11.4593 1.98612 11.9898 1.98608ZM10.2496 3.99976L11.1197 4.49292L11.1187 4.49585L3.11872 18.4958L3.11579 18.4998C3.02764 18.6524 2.98162 18.8264 2.98201 19.0027C2.98247 19.1787 3.02914 19.3516 3.11775 19.5037C3.20658 19.6559 3.33459 19.7827 3.48786 19.8699C3.64103 19.9569 3.81465 20.0013 3.99079 19.9998H19.9986C20.174 19.9996 20.3468 19.9537 20.4986 19.866C20.6504 19.7782 20.7762 19.6516 20.8638 19.4998C20.9515 19.3478 20.9977 19.1752 20.9976 18.9998C20.9976 18.8243 20.9516 18.6517 20.8638 18.4998L20.8619 18.4958L12.8619 4.49585L12.8599 4.49292C12.7727 4.3391 12.6465 4.21086 12.4937 4.12183C12.3409 4.03277 12.1667 3.98608 11.9898 3.98608C11.8131 3.98612 11.6396 4.03294 11.4869 4.12183C11.334 4.21089 11.2069 4.33902 11.1197 4.49292L10.2261 3.98608L10.2496 3.99976ZM12.0103 15.9998C12.5624 15.9999 13.0102 16.4477 13.0103 16.9998C13.0103 17.5519 12.5625 17.9996 12.0103 17.9998H11.9996C11.4475 17.9995 10.9996 17.5519 10.9996 16.9998C10.9997 16.4477 11.4476 16 11.9996 15.9998H12.0103ZM10.9996 12.9998V8.99976C10.9997 8.44771 11.4476 7.99998 11.9996 7.99976C12.5518 7.99976 12.9995 8.44757 12.9996 8.99976V12.9998C12.9996 13.552 12.5519 13.9998 11.9996 13.9998C11.4475 13.9995 10.9996 13.5519 10.9996 12.9998Z" fill="currentColor"/>
  </symbol>
  <symbol id="icon-circle-alert" viewBox="0 0 24 24" fill="none">
    <path d="M21 12C21 7.02944 16.9706 3 12 3C7.02944 3 3 7.02944 3 12C3 16.9706 7.02944 21 12 21C16.9706 21 21 16.9706 21 12ZM12.0098 15C12.5621 15 13.0098 15.4477 13.0098 16C13.0098 16.5523 12.5621 17 12.0098 17H12C11.4477 17 11 16.5523 11 16C11 15.4477 11.4477 15 12 15H12.0098ZM11 12V8C11 7.44772 11.4477 7 12 7C12.5523 7 13 7.44772 13 8V12C13 12.5523 12.5523 13 12 13C11.4477 13 11 12.5523 11 12ZM23 12C23 18.0751 18.0751 23 12 23C5.92487 23 1 18.0751 1 12C1 5.92487 5.92487 1 12 1C18.0751 1 23 5.92487 23 12Z" fill="currentColor"/>
  </symbol>
  <symbol id="icon-info" viewBox="0 0 24 24" fill="none">
    <path d="M21 12C21 7.02944 16.9706 3 12 3C7.02944 3 3 7.02944 3 12C3 16.9706 7.02944 21 12 21C16.9706 21 21 16.9706 21 12ZM11 16V12C11 11.4477 11.4477 11 12 11C12.5523 11 13 11.4477 13 12V16C13 16.5523 12.5523 17 12 17C11.4477 17 11 16.5523 11 16ZM12.0098 7C12.5621 7 13.0098 7.44772 13.0098 8C13.0098 8.55228 12.5621 9 12.0098 9H12C11.4477 9 11 8.55228 11 8C11 7.44772 11.4477 7 12 7H12.0098ZM23 12C23 18.0751 18.0751 23 12 23C5.92487 23 1 18.0751 1 12C1 5.92487 5.92487 1 12 1C18.0751 1 23 5.92487 23 12Z" fill="currentColor"/>
  </symbol>
  <symbol id="icon-calendar" viewBox="0 0 24 24" fill="none">
    <path d="M20 11H4V20C4 20.5523 4.44771 21 5 21H19C19.5523 21 20 20.5523 20 20V11ZM15 6V5H9V6C9 6.55228 8.55228 7 8 7C7.44772 7 7 6.55228 7 6V5H5C4.44772 5 4 5.44772 4 6V9H20V6C20 5.44771 19.5523 5 19 5H17V6C17 6.55228 16.5523 7 16 7C15.4477 7 15 6.55228 15 6ZM22 20C22 21.6569 20.6569 23 19 23H5C3.34315 23 2 21.6569 2 20V6C2 4.34315 3.34315 3 5 3H7V2C7 1.44772 7.44772 1 8 1C8.55228 1 9 1.44772 9 2V3H15V2C15 1.44772 15.4477 1 16 1C16.5523 1 17 1.44772 17 2V3H19C20.6569 3 22 4.34315 22 6V20Z" fill="currentColor"/>
  </symbol>
  <symbol id="icon-search" viewBox="0 0 24 24" fill="none">
    <path d="M18 11C18 7.13401 14.866 4 11 4C7.13401 4 4 7.13401 4 11C4 14.866 7.13401 18 11 18C14.866 18 18 14.866 18 11ZM20 11C20 13.125 19.2619 15.0766 18.0303 16.6162L21.707 20.293C22.0976 20.6835 22.0976 21.3165 21.707 21.707C21.3165 22.0976 20.6835 22.0976 20.293 21.707L16.6162 18.0303C15.0766 19.2619 13.125 20 11 20C6.02944 20 2 15.9706 2 11C2 6.02944 6.02944 2 11 2C15.9706 2 20 6.02944 20 11Z" fill="currentColor"/>
  </symbol>
  <symbol id="icon-file-plus" viewBox="0 0 24 24" fill="none">
    <path d="M3 20V4C3 3.20435 3.3163 2.44152 3.87891 1.87891C4.44152 1.3163 5.20435 1 6 1H15C15.2652 1 15.5195 1.10543 15.707 1.29297L20.707 6.29297C20.8946 6.4805 21 6.73478 21 7V20C21 20.7957 20.6837 21.5585 20.1211 22.1211C19.5585 22.6837 18.7957 23 18 23H6C5.20435 23 4.44152 22.6837 3.87891 22.1211C3.3163 21.5585 3 20.7957 3 20ZM11 18V16H9C8.44772 16 8 15.5523 8 15C8 14.4477 8.44772 14 9 14H11V12C11 11.4477 11.4477 11 12 11C12.5523 11 13 11.4477 13 12V14H15C15.5523 14 16 14.4477 16 15C16 15.5523 15.5523 16 15 16H13V18C13 18.5523 12.5523 19 12 19C11.4477 19 11 18.5523 11 18ZM15 6C15 6.26522 15.1054 6.51949 15.293 6.70703C15.4805 6.89457 15.7348 7 16 7H18.5859L15 3.41406V6ZM5 20C5 20.2652 5.10543 20.5195 5.29297 20.707C5.48051 20.8946 5.73478 21 6 21H18C18.2652 21 18.5195 20.8946 18.707 20.707C18.8946 20.5195 19 20.2652 19 20V9H16C15.2044 9 14.4415 8.6837 13.8789 8.12109C13.3163 7.55849 13 6.79565 13 6V3H6C5.73478 3 5.4805 3.10543 5.29297 3.29297C5.10543 3.4805 5 3.73478 5 4V20Z" fill="currentColor"/>
  </symbol>
  <symbol id="icon-delete" viewBox="0 0 24 24" fill="none">
    <path d="M21.0001 7C21.0001 6.73479 20.8946 6.4805 20.7071 6.29297C20.5196 6.10545 20.2653 6.00002 20.0001 6H10.0001C9.7516 6.00001 9.51217 6.09279 9.32819 6.25977L3.00006 11.999L9.32819 17.7402C9.51217 17.9072 9.7516 18 10.0001 18H20.0001C20.2653 18 20.5196 17.8946 20.7071 17.707C20.8946 17.5195 21.0001 17.2652 21.0001 17V7ZM17.293 8.29297C17.6836 7.90247 18.3166 7.90245 18.7071 8.29297C19.0976 8.68349 19.0976 9.31651 18.7071 9.70703L16.4141 12L18.7071 14.293C19.0976 14.6835 19.0976 15.3165 18.7071 15.707C18.3166 16.0975 17.6836 16.0975 17.293 15.707L15.0001 13.4141L12.7071 15.707C12.3166 16.0975 11.6836 16.0975 11.293 15.707C10.9025 15.3165 10.9025 14.6835 11.293 14.293L13.586 12L11.293 9.70703C10.9025 9.31651 10.9025 8.68349 11.293 8.29297C11.6836 7.90247 12.3166 7.90245 12.7071 8.29297L15.0001 10.5859L17.293 8.29297ZM23.0001 17C23.0001 17.7956 22.6837 18.5585 22.1212 19.1211C21.5586 19.6837 20.7957 20 20.0001 20H10.0001C9.25484 20 8.53634 19.7224 7.98444 19.2217L1.65631 13.4805C1.44975 13.293 1.28392 13.0646 1.17096 12.8096C1.058 12.5545 1.00006 12.278 1.00006 11.999C1.00013 11.7202 1.05807 11.4444 1.17096 11.1895C1.28392 10.9344 1.44975 10.706 1.65631 10.5186L7.98444 4.77832L8.1983 4.60156C8.71587 4.21273 9.34774 4.00004 10.0001 4H20.0001C20.7957 4.00002 21.5586 4.31631 22.1212 4.87891C22.6837 5.44151 23.0001 6.20437 23.0001 7V17Z" fill="currentColor"/>
  </symbol>
</svg>
